<?xml version="1.0"?>
<svg xmlns="http://www.w3.org/2000/svg" viewBox="0 0 50 50">
    <path style="text-indent:0;text-align:start;line-height:normal;text-transform:none;block-progression:tb;-inkscape-font-specification:Sans" d="M 25 2 C 12.309296 2 2 12.309296 2 25 C 2 37.690704 12.309296 48 25 48 C 37.690704 48 48 37.690704 48 25 C 48 12.309296 37.690704 2 25 2 z M 25 4 C 36.609824 4 46 13.390176 46 25 C 46 36.609824 36.609824 46 25 46 C 13.390176 46 4 36.609824 4 25 C 4 13.390176 13.390176 4 25 4 z M 24.875 17 A 1.0001 1.0001 0 0 0 24.28125 17.28125 L 14.28125 27.28125 A 1.016466 1.016466 0 1 0 15.71875 28.71875 L 25 19.4375 L 34.28125 28.71875 A 1.016466 1.016466 0 1 0 35.71875 27.28125 L 25.71875 17.28125 A 1.0001 1.0001 0 0 0 24.875 17 z" overflow="visible" font-family="Sans"/>
</svg>
